HIERARCHY
ROOT Hips
{
	OFFSET 0.00000 0.00000 0.00000
	CHANNELS 6 Xposition Yposition Zposition Zrotation Yrotation Xrotation 
	JOINT RightUpLegDummy
	{
		OFFSET 0 0 0
		CHANNELS 3 Zrotation Yrotation Xrotation
		JOINT RightUpLeg
		{
			OFFSET -3.52197 -3.41223 0.04002
			CHANNELS 3 Zrotation Yrotation Xrotation
			JOINT RightLeg
			{
				OFFSET 0.00006 -17.42390 1.60435
				CHANNELS 3 Zrotation Yrotation Xrotation
				JOINT RightFoot
				{
					OFFSET 0.06154 -16.50078 -1.63900
					CHANNELS 3 Zrotation Yrotation Xrotation
					JOINT RightToes
					{
						OFFSET 0.00298 -1.73825 3.34613
						CHANNELS 3 Zrotation Yrotation Xrotation
						End Site
						{
							OFFSET 0.00480 -0.05416 3.85043
						}
					}
				}
			}
		}
	}
	JOINT SpineDummy
	{
		OFFSET 0 0 0
		CHANNELS 3 Zrotation Yrotation Xrotation
		JOINT Spine
		{
			OFFSET 0.00000 4.68130 0.00000
			CHANNELS 3 Zrotation Yrotation Xrotation
			JOINT Spine1
			{
				OFFSET -0.00000 10.10138 0.05002
				CHANNELS 3 Zrotation Yrotation Xrotation
				JOINT HEadDummy
				{
					OFFSET 0 0 0
					CHANNELS 3 Zrotation Yrotation Xrotation
					JOINT Head
					{
						OFFSET -0.00000 3.43865 0.00438
						CHANNELS 3 Zrotation Yrotation Xrotation
						End Site
						{
							OFFSET -0.11417 5.02924 0.98962
						}
					}
				}
				JOINT LeftShoulder1Dummy
				{
					OFFSET 0 0 0
					CHANNELS 3 Zrotation Yrotation Xrotation
					JOINT LeftShoulder1
					{
						OFFSET 3.53937 -0.14262 -0.08662
						CHANNELS 3 Zrotation Yrotation Xrotation
						JOINT LeftArm
						{
							OFFSET 4.04833 -0.00133 0.12681
							CHANNELS 3 Zrotation Yrotation Xrotation
							JOINT LeftForeArm
							{
								OFFSET 10.33880 -0.01036 -0.55515
								CHANNELS 3 Zrotation Yrotation Xrotation
								JOINT LeftHand
								{
									OFFSET 8.69677 0.07543 0.40060
									CHANNELS 3 Zrotation Yrotation Xrotation
									End Site
									{
										OFFSET 5.28377 -0.21905 0.59205
									}
								}
							}
						}
					}
				}
				JOINT RightShoulderDummy
				{
					OFFSET 0 0 0
					CHANNELS 3 Zrotation Yrotation Xrotation
					JOINT RightShoulder
					{
						OFFSET -3.53937 -0.14262 -0.08660
						CHANNELS 3 Zrotation Yrotation Xrotation
						JOINT RightArm
						{
							OFFSET -4.04833 -0.00133 0.12683
							CHANNELS 3 Zrotation Yrotation Xrotation
							JOINT RightForeArm
							{
								OFFSET -10.37987 -0.01039 -0.55511
								CHANNELS 3 Zrotation Yrotation Xrotation
								JOINT RightHand
								{
									OFFSET -8.67398 0.07538 0.40058
									CHANNELS 3 Zrotation Yrotation Xrotation
									End Site
									{
										OFFSET -5.24810 -0.21916 0.59204
									}
								}
							}
						}
					}
				}
			}
		}
	}
	JOINT LeftUpLegDummy
	{
		OFFSET 0 0 0
		CHANNELS 3 Zrotation Yrotation Xrotation
		JOINT LeftUpLeg
		{
			OFFSET 3.52197 -3.41223 0.04002
			CHANNELS 3 Zrotation Yrotation Xrotation
			JOINT LeftLeg
			{
				OFFSET -0.00012 -17.42399 1.60337
				CHANNELS 3 Zrotation Yrotation Xrotation
				JOINT LeftFoot
				{
					OFFSET -0.09972 -16.50070 -1.63802
					CHANNELS 3 Zrotation Yrotation Xrotation
					JOINT LeftToes
					{
						OFFSET -0.01575 -1.73823 3.34611
						CHANNELS 3 Zrotation Yrotation Xrotation
						End Site
						{
							OFFSET 0.03150 -0.01868 3.85031
						}
					}
				}
			}
		}
	}
}
MOTION
Frames: 7
Frame Time: 0.033333
-0.9162 38.1108 12.2373 177.5280 2.5695 -178.2260 0.0000 0.0000 0.0000 -6.9941 -6.6165 -17.8543 -6.4444 -8.0589 32.1409 12.9390 0.0925 -12.5716 0.0000 0.0000 -0.0000 0.0000 0.0000 0.0000 0.9500 -0.4344 11.7505 -1.8259 0.6273 31.7292 0.0000 0.0000 0.0000 -2.4967 1.8076 -26.4533 0.0000 0.0000 0.0000 -10.3888 -7.2882 1.9055 -58.4161 -21.1677 27.1410 -176.0433 -86.5753 -179.5728 29.7667 -3.7185 -2.3499 0.0000 0.0000 0.0000 10.4213 1.6172 0.9064 56.6802 13.5976 11.6799 179.8265 65.6647 -172.5500 -16.1539 6.3725 -1.5947 0.0000 0.0000 0.0000 9.3010 -6.0383 -18.1168 0.1275 -0.3664 26.3891 -12.0277 0.0997 -11.0203 0.0000 -0.0000 0.0000
-0.9951 38.2873 12.1649 177.4040 2.6387 -177.6290 0.0000 0.0000 0.0000 -7.1893 -6.8237 -17.6227 -6.1262 -8.1231 30.4789 12.9680 -0.0051 -11.6817 0.0000 0.0000 -0.0000 0.0000 0.0000 0.0000 1.0824 -0.3514 11.2592 -1.8954 0.7651 31.4238 0.0000 0.0000 0.0000 -2.2873 1.5546 -26.2006 0.0000 0.0000 0.0000 -10.4520 -7.1652 1.8898 -58.4455 -20.0133 27.9336 -176.1461 -86.2471 -179.8109 29.8282 -3.6419 -2.3354 0.0000 0.0000 0.0000 10.3844 1.5955 0.9009 56.8445 12.8152 12.1331 179.8281 65.3157 -172.5542 -16.0216 6.3211 -1.5742 0.0000 0.0000 0.0000 8.9355 -5.6894 -17.8115 0.3770 0.0451 24.8116 -11.8670 0.1668 -10.3307 0.0000 -0.0000 0.0000
-1.1425 38.4743 12.0818 177.1870 2.9832 -177.0640 0.0000 0.0000 0.0000 -7.6198 -6.7692 -17.3032 -5.7522 -8.1613 28.5962 13.1452 -0.1169 -10.6744 0.0000 0.0000 -0.0000 0.0000 0.0000 0.0000 1.0842 -0.1767 10.9434 -2.0128 1.0033 30.8487 0.0000 0.0000 0.0000 -2.2235 1.3251 -25.9572 0.0000 0.0000 0.0000 -10.4536 -7.0049 1.8616 -58.3384 -18.9869 28.5067 -176.3647 -85.8239 -179.8711 29.7349 -3.6493 -2.3296 0.0000 0.0000 0.0000 10.3105 1.5774 0.8943 56.9106 12.0687 12.5728 179.8063 64.9702 -172.7930 -16.0078 6.1790 -1.5541 0.0000 0.0000 0.0000 8.1053 -4.3911 -17.3904 0.9630 1.1127 23.3203 -11.5111 0.2417 -9.5018 0.0000 -0.0000 0.0000
-1.3593 38.6485 11.9990 176.9690 3.3151 -176.6090 0.0000 0.0000 0.0000 -8.2018 -6.4424 -16.8376 -5.5128 -8.4032 26.6861 13.4739 -0.2362 -9.6482 0.0000 0.0000 -0.0000 0.0000 0.0000 0.0000 1.0672 -0.0803 10.7193 -2.2047 1.1774 30.2844 0.0000 0.0000 0.0000 -2.3509 1.1984 -25.7436 0.0000 0.0000 0.0000 -10.3801 -6.8775 1.8322 -58.1289 -18.2680 28.7239 -176.5278 -85.5207 -179.8561 29.5373 -3.7037 -2.3270 0.0000 0.0000 0.0000 10.1718 1.5675 0.8862 56.7960 11.6453 12.9363 179.7748 64.7441 -173.1312 -16.3166 6.1284 -1.5789 0.0000 0.0000 0.0000 7.0160 -2.8097 -17.0092 1.6792 2.5347 22.0960 -10.7431 0.3114 -8.5711 0.0000 -0.0000 0.0000
-1.6398 38.7733 11.9227 176.9170 3.6094 -176.3280 0.0000 0.0000 0.0000 -8.7483 -5.9357 -16.3349 -5.4126 -8.7782 25.1000 13.8834 -0.3497 -8.7386 0.0000 0.0000 -0.0000 0.0000 0.0000 0.0000 1.2440 -0.0754 10.6304 -2.4909 1.3115 29.8131 0.0000 0.0000 0.0000 -2.5276 1.1465 -25.5735 0.0000 0.0000 0.0000 -10.2822 -6.8509 1.8183 -57.8777 -17.9544 28.5729 -176.5039 -85.4615 -179.9949 29.4162 -3.6939 -2.3144 0.0000 0.0000 0.0000 9.9907 1.5266 0.8709 56.5012 11.5356 13.1356 179.7530 64.6225 -173.3590 -16.7130 6.2158 -1.6309 0.0000 0.0000 0.0000 6.1818 -1.8310 -16.7096 2.1125 3.4817 21.2588 -10.1564 0.3520 -7.9167 0.0000 -0.0000 0.0000
-1.9623 38.8072 11.8515 177.0090 4.1182 -176.2260 0.0000 0.0000 0.0000 -9.2416 -5.3339 -16.1226 -5.3412 -8.9187 24.3687 14.3905 -0.4225 -8.2389 0.0000 0.0000 -0.0000 0.0000 0.0000 0.0000 1.4226 -0.0021 10.7727 -2.7085 1.4894 29.3322 0.0000 0.0000 0.0000 -2.6498 1.1478 -25.4221 0.0000 0.0000 0.0000 -10.2027 -6.8575 1.8121 -57.6565 -17.9946 28.1035 -176.2298 -85.5995 179.4623 29.3981 -3.5740 -2.2827 0.0000 0.0000 0.0000 9.7920 1.4844 0.8547 56.1637 11.6211 13.1734 179.7479 64.6007 -173.4031 -16.8802 6.2979 -1.6594 0.0000 0.0000 0.0000 5.7274 -1.2078 -16.5731 2.0616 3.4005 21.1429 -10.3702 0.3541 -7.9578 0.0000 -0.0000 0.0000
-2.2957 38.7288 11.7851 177.0040 4.8463 -176.2430 0.0000 0.0000 0.0000 -9.8904 -4.7595 -16.4764 -5.2792 -8.6283 24.8909 15.0249 -0.4112 -8.4612 0.0000 0.0000 -0.0000 0.0000 0.0000 0.0000 1.2061 0.2088 11.0752 -2.6836 1.6658 28.8507 0.0000 0.0000 0.0000 -2.7060 1.1727 -25.3269 0.0000 0.0000 0.0000 -10.0239 -6.8199 1.7890 -57.4849 -18.3480 27.3872 -175.7464 -85.8400 178.5724 29.3686 -3.4349 -2.2453 0.0000 0.0000 0.0000 9.5730 1.5079 0.8484 56.0310 11.8183 13.1169 179.7597 64.6495 -173.2887 -16.8509 6.2968 -1.6563 0.0000 0.0000 0.0000 5.1992 0.0038 -16.8588 1.6364 2.4492 22.1506 -10.8856 0.3026 -8.7101 0.0000 -0.0000 0.0000
